<svg xmlns="http://www.w3.org/2000/svg" width="24" height="24" fill="none" id="discord"><path fill="#ffffff" fill-rule="evenodd" d="M8.135 4.513a.5.5 0 0 1 .539.222L9.777 6.5h4.446l1.103-1.765a.5.5 0 0 1 .538-.222l4.25 1a.5.5 0 0 1 .36.329l1.462 4.383a11 11 0 0 1 .564 3.479V18a.5.5 0 0 1-.314.464l-5 2a.5.5 0 0 1-.54-.11L14.793 18.5H9.207l-1.853 1.854a.5.5 0 0 1-.54.11l-5-2A.5.5 0 0 1 1.5 18v-4.296a11 11 0 0 1 .564-3.479l1.462-4.383a.5.5 0 0 1 .36-.329l4.25-1Zm-3.749 1.91-1.373 4.119a10 10 0 0 0-.513 3.162v3.957l4.38 1.752 1.766-1.767A.5.5 0 0 1 9 17.5h6a.5.5 0 0 1 .354.146l1.766 1.767 4.38-1.752v-3.957a10 10 0 0 0-.513-3.162l-1.373-4.12-3.63-.853-1.06 1.696a.5.5 0 0 1-.424.235h-5a.5.5 0 0 1-.424-.235l-1.06-1.696-3.63.854Z" clip-rule="evenodd"></path><path fill="#ffffff" fill-rule="evenodd" d="M15.5 12a1 1 0 1 0 0 2 1 1 0 0 0 0-2zm-2 1a2 2 0 1 1 4 0 2 2 0 0 1-4 0zm-5-1a1 1 0 1 0 0 2 1 1 0 0 0 0-2zm-2 1a2 2 0 1 1 4 0 2 2 0 0 1-4 0z" clip-rule="evenodd"></path></svg>